<?xml version="1.0" encoding="utf-8"?>
<!-- Generator: Adobe Illustrator 16.0.4, SVG Export Plug-In . SVG Version: 6.00 Build 0)  -->
<!DOCTYPE svg PUBLIC "-//W3C//DTD SVG 1.1//EN" "http://www.w3.org/Graphics/SVG/1.1/DTD/svg11.dtd">
<svg version="1.1" id="Layer_1" xmlns="http://www.w3.org/2000/svg" xmlns:xlink="http://www.w3.org/1999/xlink" x="0px" y="0px"
	 width="260.132px" height="409.51px" viewBox="0 0 260.132 409.51" enable-background="new 0 0 260.132 409.51"
	 xml:space="preserve">
<g>
	<defs>
		<rect id="SVGID_1_" width="260.132" height="409.51"/>
	</defs>
	<clipPath id="SVGID_2_">
		<use xlink:href="#SVGID_1_"  overflow="visible"/>
	</clipPath>
	<g clip-path="url(#SVGID_2_)">
		<defs>
			<path id="SVGID_3_" d="M129.82,0C69.656,0.039,28.846,21.481,14.093,30.698C5.136,36.292,0,45.793,0,56.767
				c0,3.402,0.063,106.437,0.063,109.627c0,8.178,0,23.403,13.956,40.426c12.222,14.909,19.555,21.062,45.613,40.899
				c27.24,20.735,61.522,43.697,62.969,44.665l7.385,4.942l0.06-0.042l0.08,0.054l7.406-4.954
				c1.444-0.968,35.727-23.93,62.97-44.667c26.056-19.835,33.39-25.988,45.613-40.897c13.954-17.024,13.954-32.25,13.954-40.46
				c0-3.155,0.062-106.19,0.062-109.592c0-10.974-5.137-20.475-14.09-26.069C231.287,21.481,190.477,0.039,130.306,0H129.82z"/>
		</defs>
		<clipPath id="SVGID_4_">
			<use xlink:href="#SVGID_3_"  overflow="visible"/>
		</clipPath>
		
			<linearGradient id="SVGID_5_" gradientUnits="userSpaceOnUse" x1="0" y1="409.4375" x2="1" y2="409.4375" gradientTransform="matrix(209.2088 -202.0307 -202.0307 -209.2088 82759.2812 85893.0703)">
			<stop  offset="0" style="stop-color:#515C64"/>
			<stop  offset="0.0194" style="stop-color:#5B676E"/>
			<stop  offset="0.0989" style="stop-color:#808D94"/>
			<stop  offset="0.1383" style="stop-color:#8F9BA3"/>
			<stop  offset="0.3521" style="stop-color:#D6DCE0"/>
			<stop  offset="0.4627" style="stop-color:#FFFFFF"/>
			<stop  offset="0.7213" style="stop-color:#FFFFFF"/>
			<stop  offset="0.7541" style="stop-color:#F2F4F6"/>
			<stop  offset="0.8057" style="stop-color:#DAE0E3"/>
			<stop  offset="0.8698" style="stop-color:#B7C0C6"/>
			<stop  offset="0.9345" style="stop-color:#8F9BA3"/>
			<stop  offset="1" style="stop-color:#8F9BA3"/>
		</linearGradient>
		<polygon clip-path="url(#SVGID_4_)" fill="url(#SVGID_5_)" points="-148.579,143.48 134.605,-129.987 408.711,153.857 
			125.527,427.324 		"/>
	</g>
	<g clip-path="url(#SVGID_2_)">
		<defs>
			<path id="SVGID_6_" d="M117.666,100.106L117.666,100.106 M188.252,95.656c0.693,2.375,0.321,4.642,0.036,4.746
				c-0.066,0.025-0.123,0.035-0.229-0.036c-0.441-0.294-1.135-1.549-1.472-1.879c-0.38-0.373-1.107-0.684-1.508-0.274
				c-0.402,0.41,0.134,1.736-0.735,1.745c-0.298,0.003-0.568-0.082-0.825-0.168c-0.49-0.163-0.924-0.327-1.376,0.134
				c-0.688,0.702-3.093,3.276-6.049,3.017c-1.342-0.117-2.549-0.173-3.704-0.167c0,0-3.332-0.775-6.07,0.114
				c0,0,2.787-0.038,3.817,0.61c-2.938,0.862-9.532,4.444-22.137,8.082c-3.337,0.963-5.893,0.657-12.838,1.619
				c-8.285,1.148-8.207,1.634-12.233,1.634c-2.585,0-3.872-0.343-7.665,0.239c0,0,2.333-0.091,5.329,1.495
				c-2.373,1.355-5.581,3.769-8.856,4.681c-8.696,2.423-19.546,3.51-25.341,5.219c-2.98,0.88-6.11,2.017-6.11,2.017
				c-2.956-1.365-4.925-4.213-4.925-4.213s3.427,6.314,4.833,8.615c1.676,3.07,4.284,7.927,5.486,11.318
				c1.711,4.825,3.896,10.505,3.504,13.932c-0.298,2.598-2.065,3.253-3.521,3.806c-0.789,0.301-2.797,0.158-3.292,0.302
				c-1.393,0.407-5.3-0.325-7.132-1.285c-2.17-1.137-5.432-2.644-6.517-3.123c-1.084-0.48-13.289-6.156-17.907-7.479
				c-3.448-0.708-6.687,0.029-9.126,1.156c-1.469,0.679-5.188,2.186-6.656,3.379c-1.468,1.193-3.723,4.648-4.685,5.28
				c-0.591,0.389-1.52,0.026-1.716-0.066c-0.474-0.224-1.17-2.382,0.018-5.88c0.465-1.371,1.331-2.651,2.275-3.785
				c0.575-0.62,2.536-3.02,3.075-4.758c0.539-1.738,0.582-2.714,0.582-2.714s-1.921,4.627-6.259,7.867
				c-0.812,0.556-1.449,0.765-2.206,0.838c-0.391,0.037-0.989,0.002-1.597-0.033c-0.856-0.05-1.73-0.1-2.077,0.053
				c-2.077,0.917-5.532,1.244-8.768,1.771c0.004,6.517,0.007,11.012,0.007,12.227c0,7.525-0.018,18.659,10.941,32.027
				c2.173,2.65,4.163,4.989,6.152,7.186c50.678-30.068,201.974-74.244,215.826-78.255c0.01-15.402,0.021-32.581,0.028-46.125
				C219.065,87.004,194.184,93.973,188.252,95.656 M130.119,12.957c-0.08,0-0.158-0.002-0.238-0.002
				C71.656,12.992,32.785,34.51,21.521,41.547c-5.697,3.558-7.895,9.268-7.895,14.89c0,4.897,0.05,85.448,0.05,85.448
				c2.01-0.745,3.079-0.946,4.744-1.342c7.136-1.7,11.349-3.747,15.318-5.613c2.997-1.41,11.887-6.808,13.256-8.963
				c1.244-2.047,2.126-3.993,3.651-5.824c2.646-3.18,5.901-5.481,11.267-7.466c0.003-0.001,0.004-0.001,0.007-0.002
				c1.941-0.798,8.574-3.43,13.479-6.152c1.72-0.956,4.202-2.922,5.552-4.437c1.68-1.794,2.6-2.67,3.302-3.192
				c0.746-0.588,2.281-1.715,3.932-2.457c0.836-0.376,4.405-1.542,4.405-1.542s-5.663,0.177-8.064,1.811c0,0-2.373-2.06-3.98-3.922
				c-2.128-2.467-2.875-3.408-3.784-4.285c-1.223-1.138-4.001-3.681-4.74-4.264c-0.74-0.583-7.061-4.053-8.233-4.922
				c-1.503-1.115-4.231-3.998-5.843-5.5c-0.92-0.858-4.373-4.595-7.54-5.668c0,0-1.744-0.783-2.44-1.145
				c-0.401-0.209-0.76-0.668-1.513-0.868c-0.945-0.25-2.49-1.205-2.851-1.645c-0.439-0.536-1.741-1.382-1.741-1.382
				c-0.194-0.515,0.845-0.69,1.167-0.69c0.28,0,0.822,0.195,1.121,0.408c0.235,0.168,0.894,0.655,1.569,0.979
				c0.643,0.136,1.353,0.182,1.763,0.004c0.314-0.137,0.392-0.281-0.218-0.834c-0.267-0.242-1.48-1.127-1.895-1.403
				c-0.414-0.276-1.271-0.739-1.503-0.904c-0.207-0.148-0.888-0.36-0.888-0.785c0-0.082-0.002-0.149-0.034-0.188
				c-0.073-0.089-0.34-0.125-0.485-0.27c-0.18-0.18-0.981-0.72-1.116-1.399l0.001-0.001c-0.607-0.235-1.027-0.846-1.165-1.326
				c-0.122-0.424,0.173-0.55,0.257-0.515c0.086,0.035,2.834,1.159,3.769,1.514c0.427,0.162,1.199,0.439,1.998,0.741
				c0.944,0.358,1.925,0.75,2.413,1.03c0.902,0.515,1.46,1.048,1.46,1.048c0.813,0.845,3.549,3.931,5.179,4.932
				s3.436,2.185,6.923,3.901c3.487,1.715,6.801,3.011,9.394,5.079c0.162,0.128,4.424,3.534,5.006,3.967
				c0.915,0.682,6.791,3.819,8.492,4.72c2.453,1.302,8.04,4.02,9.887,5.076c2.533,1.788,3.617,3.092,4.143,3.764
				c1.152,1.476,1.626,1.589,1.881,1.671c0.496,0.161,0.598,0.175,2.089,0.344c0.765,0.087,1.404,0.261,2.041,0.471
				c0.421,0.163,2.396,0.958,4.619,2.342c1.195,0.743,3.427,2.121,5.85,2.854c1.207,0.364,2.087,0.471,2.088,0.471
				c-0.005,0-4.155-1.625-8.757-5.983c-0.531-0.502-1.313-1.055-1.938-1.442c0.002-0.633,0.027-1.282,0.019-2.09
				c-0.053-4.968,2.507-7.847,4.991-9.282c2.782-1.608,5.68-1.51,8.339-1.118c2.856,0.422,4.862,1.574,6.964,3.821
				c2.103,2.247,2.937,5.321,3.22,6.559c0.479,2.09,0.359,4.262,0.359,5.724c-0.002,2.517-0.282,4.179-0.555,6.022
				c0,0,3.368-0.564,6.317-0.673c3.514-0.13,4.909-0.074,8.19-0.598c3.309-0.528,7.698-1.465,14.303-2.466
				c6.122-0.927,5.156-0.664,9.84-2.062c2.046-0.611,6.479-2.986,7.392-3.137c1.134-0.188,3.391,0.108,3.877-0.388
				c0.487-0.499,0.263-2.552,1.017-2.559c0.611-0.007,2.892,0.353,4.908,2.05c6.133-1.492,33.678-8.746,60.447-14.543
				c0.008-11.344,0.013-19.694,0.013-21.504c0-5.622-2.198-11.332-7.896-14.89c-11.265-7.037-50.136-28.555-108.359-28.592
				C130.277,12.955,130.199,12.957,130.119,12.957"/>
		</defs>
		<clipPath id="SVGID_7_">
			<use xlink:href="#SVGID_6_"  overflow="visible"/>
		</clipPath>
		
			<linearGradient id="SVGID_8_" gradientUnits="userSpaceOnUse" x1="0" y1="409.4512" x2="1" y2="409.4512" gradientTransform="matrix(189.6003 -183.0949 -183.0949 -189.6003 74999.2656 77836.9297)">
			<stop  offset="0" style="stop-color:#00062F"/>
			<stop  offset="0.0889" style="stop-color:#00062F"/>
			<stop  offset="0.153" style="stop-color:#000931"/>
			<stop  offset="0.2233" style="stop-color:#031036"/>
			<stop  offset="0.2964" style="stop-color:#0C193F"/>
			<stop  offset="0.3512" style="stop-color:#132048"/>
			<stop  offset="0.3915" style="stop-color:#112950"/>
			<stop  offset="0.4572" style="stop-color:#0D3259"/>
			<stop  offset="0.521" style="stop-color:#0B355C"/>
			<stop  offset="0.5871" style="stop-color:#0F2E55"/>
			<stop  offset="0.6753" style="stop-color:#132048"/>
			<stop  offset="0.7486" style="stop-color:#0F1C43"/>
			<stop  offset="0.8844" style="stop-color:#0A173E"/>
			<stop  offset="1" style="stop-color:#08153C"/>
		</linearGradient>
		<polygon clip-path="url(#SVGID_7_)" fill="url(#SVGID_8_)" points="-82.291,105.58 134.193,-103.476 342.547,112.279 
			126.062,321.336 		"/>
	</g>
	<g clip-path="url(#SVGID_2_)">
		<defs>
			<path id="SVGID_9_" d="M59.115,139.806c0,0-2.458,0.904-4.404,1.335c-3.277,0.725-8.447,1.682-8.447,1.682
				c4.011-0.459,8.467-0.644,8.467-0.644c4.568-0.201,7.901,0.546,7.901,0.546c2.677,1.558,5.575,3.818,7.563,6.294
				c0,0-2.962-4.515-6.166-7.039c-6.603-5.203-8.791-9-8.791-9S57.456,137.595,59.115,139.806"/>
		</defs>
		<clipPath id="SVGID_10_">
			<use xlink:href="#SVGID_9_"  overflow="visible"/>
		</clipPath>
		
			<linearGradient id="SVGID_11_" gradientUnits="userSpaceOnUse" x1="0" y1="409.7402" x2="1" y2="409.7402" gradientTransform="matrix(9.7328 -9.3988 -9.3988 -9.7328 3902.208 4135.7725)">
			<stop  offset="0" style="stop-color:#132048"/>
			<stop  offset="0.3376" style="stop-color:#132048"/>
			<stop  offset="0.367" style="stop-color:#142850"/>
			<stop  offset="0.4268" style="stop-color:#13365F"/>
			<stop  offset="0.4812" style="stop-color:#103E68"/>
			<stop  offset="0.5249" style="stop-color:#0E416B"/>
			<stop  offset="0.5351" style="stop-color:#134673"/>
			<stop  offset="0.547" style="stop-color:#174A79"/>
			<stop  offset="0.5596" style="stop-color:#194D7D"/>
			<stop  offset="0.5739" style="stop-color:#1A4E80"/>
			<stop  offset="0.6562" style="stop-color:#124571"/>
			<stop  offset="0.6999" style="stop-color:#0E416B"/>
			<stop  offset="0.7392" style="stop-color:#123A63"/>
			<stop  offset="0.8513" style="stop-color:#14274F"/>
			<stop  offset="0.912" style="stop-color:#132048"/>
			<stop  offset="1" style="stop-color:#132048"/>
		</linearGradient>
		<polygon clip-path="url(#SVGID_10_)" fill="url(#SVGID_11_)" points="38.25,140.719 58.647,121.021 78.209,141.279 
			57.812,160.977 		"/>
	</g>
	<g clip-path="url(#SVGID_2_)">
		<defs>
			<path id="SVGID_12_" d="M47.203,391.892v17.47h2.65v-7.384h7.262v-2.381h-7.262v-5.323h8.514v-2.382H47.203z M72.956,391.892
				v17.47H84.12v-2.378h-8.514v-5.253h7.262v-2.354h-7.262v-5.104h8.514v-2.382H72.956z M109.939,391.892v12.269l-8.073-12.269
				h-2.429v17.47h2.65v-12.292l8.072,12.292h2.429v-17.47H109.939z M154.289,409.361h2.65v-17.47h-2.65V409.361z M184.236,391.892
				v12.269l-8.073-12.269h-2.429v17.47h2.65v-12.292l8.072,12.292h2.429v-17.47H184.236z M128.638,393.609
				c-1.717,1.719-1.693,3.657-1.693,7.019c0,3.362-0.024,5.3,1.693,7.017c1.202,1.204,2.773,1.865,4.588,1.865
				c3.165,0,5.644-1.89,6.232-5.373h-2.675c-0.417,1.766-1.619,2.993-3.558,2.993c-1.03,0-1.964-0.394-2.576-1.055
				c-0.858-0.933-1.055-1.938-1.055-5.447c0-3.508,0.197-4.515,1.055-5.448c0.612-0.661,1.546-1.054,2.576-1.054
				c1.938,0,3.115,1.226,3.532,2.994h2.7c-0.614-3.485-3.018-5.375-6.232-5.375C131.411,391.745,129.84,392.409,128.638,393.609
				 M202.047,393.609c-1.717,1.719-1.693,3.657-1.693,7.019c0,3.362-0.023,5.3,1.693,7.017c1.203,1.204,2.773,1.865,4.588,1.865
				c1.841,0,3.484-0.589,4.811-1.987c1.152-1.228,1.57-2.674,1.57-4.933v-2.674h-6.381v2.257h3.73v0.98
				c0,1.132-0.246,2.014-0.883,2.749c-0.687,0.785-1.693,1.228-2.848,1.228c-1.029,0-1.962-0.394-2.575-1.055
				c-0.858-0.933-1.055-1.938-1.055-5.447c0-3.508,0.196-4.489,1.055-5.423c0.613-0.662,1.546-1.079,2.575-1.079
				c1.963,0,3.24,1.129,3.682,3.041h2.674c-0.49-2.993-2.649-5.422-6.355-5.422C204.771,391.745,203.25,392.409,202.047,393.609"/>
		</defs>
		<clipPath id="SVGID_13_">
			<use xlink:href="#SVGID_12_"  overflow="visible"/>
		</clipPath>
		
			<linearGradient id="SVGID_14_" gradientUnits="userSpaceOnUse" x1="-9.765625e-04" y1="409.501" x2="0.999" y2="409.501" gradientTransform="matrix(92.783 -89.5995 -89.5995 -92.783 36773.8633 38440.9141)">
			<stop  offset="0" style="stop-color:#515C64"/>
			<stop  offset="0.0194" style="stop-color:#5B676E"/>
			<stop  offset="0.0989" style="stop-color:#808D94"/>
			<stop  offset="0.1383" style="stop-color:#8F9BA3"/>
			<stop  offset="0.4742" style="stop-color:#D6DCE0"/>
			<stop  offset="0.6479" style="stop-color:#FFFFFF"/>
			<stop  offset="0.692" style="stop-color:#F2F4F6"/>
			<stop  offset="0.7614" style="stop-color:#DAE0E3"/>
			<stop  offset="0.8475" style="stop-color:#B7C0C6"/>
			<stop  offset="0.9345" style="stop-color:#8F9BA3"/>
			<stop  offset="1" style="stop-color:#8F9BA3"/>
		</linearGradient>
		<polygon clip-path="url(#SVGID_13_)" fill="url(#SVGID_14_)" points="38.326,400.317 133.003,308.889 221.893,400.938 
			127.216,492.366 		"/>
	</g>
	<g clip-path="url(#SVGID_2_)">
		<defs>
			<path id="SVGID_15_" d="M113.531,269.064c9.75,6.73,16.404,11.183,16.404,11.183l0.174-0.122l0.175,0.122
				c0,0,34.914-23.357,62.019-43.991c25.745-19.597,32.102-25.043,43.207-38.591c4.742-5.786,7.422-11.15,8.943-15.986
				C166.071,223.972,127.039,256.604,113.531,269.064 M78.151,243.915c8.55,6.299,17.333,12.555,25.182,18.056
				c33.54-28.388,111.676-68.159,142.01-83.649c1.087-4.898,1.099-9.167,1.099-12.652c0-1.104,0.002-4.936,0.005-10.512
				C144.729,196.947,94.197,231.747,78.151,243.915 M42.529,216.186c5.685,4.916,12.989,10.619,23.816,18.873
				c42.204-29.91,144.526-69.172,180.103-83.012c0.003-6.115,0.008-13.786,0.012-22.135
				C121.067,169.009,59.691,205.103,42.529,216.186"/>
		</defs>
		<clipPath id="SVGID_16_">
			<use xlink:href="#SVGID_15_"  overflow="visible"/>
		</clipPath>
		
			<linearGradient id="SVGID_17_" gradientUnits="userSpaceOnUse" x1="0" y1="409.502" x2="1" y2="409.502" gradientTransform="matrix(148.6347 -143.5349 -143.5349 -148.6347 58863.8125 61127.3828)">
			<stop  offset="0" style="stop-color:#AC162C"/>
			<stop  offset="0.418" style="stop-color:#AC162C"/>
			<stop  offset="0.5995" style="stop-color:#B4232E"/>
			<stop  offset="1" style="stop-color:#C33A32"/>
		</linearGradient>
		<polygon clip-path="url(#SVGID_16_)" fill="url(#SVGID_17_)" points="-32.593,202.456 148.053,28.008 321.582,207.702 
			140.936,382.15 		"/>
	</g>
	<g clip-path="url(#SVGID_2_)">
		<defs>
			<rect id="SVGID_18_" width="260.132" height="409.51"/>
		</defs>
		<clipPath id="SVGID_19_">
			<use xlink:href="#SVGID_18_"  overflow="visible"/>
		</clipPath>
		<g opacity="0.44" clip-path="url(#SVGID_19_)">
			<g>
				<defs>
					<rect id="SVGID_20_" x="59.636" y="140.854" width="0.064" height="0.074"/>
				</defs>
				<clipPath id="SVGID_21_">
					<use xlink:href="#SVGID_20_"  overflow="visible"/>
				</clipPath>
				<g clip-path="url(#SVGID_21_)">
					<defs>
						<path id="SVGID_22_" d="M59.7,140.854c0,0-0.033,0.038-0.064,0.074C59.654,140.907,59.662,140.898,59.7,140.854"/>
					</defs>
					<clipPath id="SVGID_23_">
						<use xlink:href="#SVGID_22_"  overflow="visible"/>
					</clipPath>
					
						<linearGradient id="SVGID_24_" gradientUnits="userSpaceOnUse" x1="0" y1="409.5098" x2="1" y2="409.5098" gradientTransform="matrix(245.8183 -84.642 -84.642 -245.8183 34669.6172 100823.7734)">
						<stop  offset="0" style="stop-color:#171D37"/>
						<stop  offset="0.2466" style="stop-color:#171D37"/>
						<stop  offset="0.3259" style="stop-color:#191F3D"/>
						<stop  offset="0.3744" style="stop-color:#1B2142"/>
						<stop  offset="0.9616" style="stop-color:#003B71"/>
						<stop  offset="1" style="stop-color:#003B71"/>
					</linearGradient>
					<polygon clip-path="url(#SVGID_23_)" fill="url(#SVGID_24_)" points="59.613,140.862 59.693,140.834 59.723,140.92 
						59.643,140.947 					"/>
				</g>
			</g>
		</g>
	</g>
	<g clip-path="url(#SVGID_2_)">
		<defs>
			<path id="SVGID_25_" d="M59.636,140.928c0.019-0.021,0.026-0.03,0.063-0.074C59.695,140.86,59.665,140.894,59.636,140.928
				 M59.699,140.854L59.699,140.854C59.699,140.854,59.699,140.854,59.699,140.854"/>
		</defs>
		<clipPath id="SVGID_26_">
			<use xlink:href="#SVGID_25_"  overflow="visible"/>
		</clipPath>
		
			<linearGradient id="SVGID_27_" gradientUnits="userSpaceOnUse" x1="0" y1="409.5107" x2="1" y2="409.5107" gradientTransform="matrix(263.9104 -90.8716 -90.8716 -263.9104 37198.5664 108240.1328)">
			<stop  offset="0" style="stop-color:#515C64"/>
			<stop  offset="0.0327" style="stop-color:#5B676E"/>
			<stop  offset="0.1669" style="stop-color:#808D94"/>
			<stop  offset="0.2332" style="stop-color:#8F9BA3"/>
			<stop  offset="0.4732" style="stop-color:#D6DCE0"/>
			<stop  offset="0.5973" style="stop-color:#FFFFFF"/>
			<stop  offset="0.7391" style="stop-color:#FFFFFF"/>
			<stop  offset="0.7714" style="stop-color:#F2F4F6"/>
			<stop  offset="0.8224" style="stop-color:#DAE0E3"/>
			<stop  offset="0.8857" style="stop-color:#B7C0C6"/>
			<stop  offset="0.9496" style="stop-color:#8F9BA3"/>
			<stop  offset="1" style="stop-color:#8F9BA3"/>
		</linearGradient>
		<polygon clip-path="url(#SVGID_26_)" fill="url(#SVGID_27_)" points="59.613,140.862 59.693,140.834 59.723,140.92 
			59.643,140.947 		"/>
	</g>
	<g clip-path="url(#SVGID_2_)">
		<defs>
			<rect id="SVGID_28_" width="260.132" height="409.51"/>
		</defs>
		<clipPath id="SVGID_29_">
			<use xlink:href="#SVGID_28_"  overflow="visible"/>
		</clipPath>
		<g opacity="0.44" clip-path="url(#SVGID_29_)">
			<g>
				<defs>
					<rect id="SVGID_30_" x="59.594" y="140.928" width="0.042" height="0.048"/>
				</defs>
				<clipPath id="SVGID_31_">
					<use xlink:href="#SVGID_30_"  overflow="visible"/>
				</clipPath>
				<g clip-path="url(#SVGID_31_)">
					<defs>
						<path id="SVGID_32_" d="M59.636,140.928C59.571,141.004,59.592,140.979,59.636,140.928"/>
					</defs>
					<clipPath id="SVGID_33_">
						<use xlink:href="#SVGID_32_"  overflow="visible"/>
					</clipPath>
					
						<linearGradient id="SVGID_34_" gradientUnits="userSpaceOnUse" x1="0.21" y1="409.5098" x2="0.21" y2="409.5098" gradientTransform="matrix(245.8183 -84.642 -84.642 -245.8183 34669.6172 100823.7734)">
						<stop  offset="0" style="stop-color:#171D37"/>
						<stop  offset="0.2466" style="stop-color:#171D37"/>
						<stop  offset="0.3259" style="stop-color:#191F3D"/>
						<stop  offset="0.3744" style="stop-color:#1B2142"/>
						<stop  offset="0.9616" style="stop-color:#003B71"/>
						<stop  offset="1" style="stop-color:#003B71"/>
					</linearGradient>
					<polygon clip-path="url(#SVGID_33_)" fill="url(#SVGID_34_)" points="59.548,140.936 59.629,140.908 59.659,140.996 
						59.578,141.024 					"/>
				</g>
			</g>
		</g>
	</g>
	<g clip-path="url(#SVGID_2_)">
		<defs>
			<path id="SVGID_35_" d="M59.636,140.928C59.571,141.003,59.592,140.98,59.636,140.928"/>
		</defs>
		<clipPath id="SVGID_36_">
			<use xlink:href="#SVGID_35_"  overflow="visible"/>
		</clipPath>
		
			<linearGradient id="SVGID_37_" gradientUnits="userSpaceOnUse" x1="0.2812" y1="409.5098" x2="0.2812" y2="409.5098" gradientTransform="matrix(263.9104 -90.8716 -90.8716 -263.9104 37198.5664 108240.1328)">
			<stop  offset="0" style="stop-color:#515C64"/>
			<stop  offset="0.0327" style="stop-color:#5B676E"/>
			<stop  offset="0.1669" style="stop-color:#808D94"/>
			<stop  offset="0.2332" style="stop-color:#8F9BA3"/>
			<stop  offset="0.4732" style="stop-color:#D6DCE0"/>
			<stop  offset="0.5973" style="stop-color:#FFFFFF"/>
			<stop  offset="0.7391" style="stop-color:#FFFFFF"/>
			<stop  offset="0.7714" style="stop-color:#F2F4F6"/>
			<stop  offset="0.8224" style="stop-color:#DAE0E3"/>
			<stop  offset="0.8857" style="stop-color:#B7C0C6"/>
			<stop  offset="0.9496" style="stop-color:#8F9BA3"/>
			<stop  offset="1" style="stop-color:#8F9BA3"/>
		</linearGradient>
		<polygon clip-path="url(#SVGID_36_)" fill="url(#SVGID_37_)" points="59.548,140.936 59.629,140.908 59.659,140.995 
			59.578,141.023 		"/>
	</g>
	<g clip-path="url(#SVGID_2_)">
		<defs>
			<path id="SVGID_38_" d="M77.47,334.727l-0.018,26.029l-0.486,0.237c-3.712,1.812-11.405,4.855-21.202,4.862H55.76h-0.004
				c-9.797-0.007-17.49-3.05-21.202-4.862l-0.486-0.237l-0.011-26.029h-8.336l0.002,28.777c-0.003,0.081-0.06,1.988,1.445,2.928
				c2.906,1.816,13.545,7.736,28.592,7.752c15.047-0.016,25.686-5.936,28.591-7.752c1.505-0.939,1.448-2.847,1.446-2.928
				l0.001-28.777H77.47z M183.068,343.503l0.484-0.237c3.714-1.812,11.406-4.855,21.202-4.862h0.005h0.004
				c9.797,0.007,17.489,3.05,21.203,4.862l0.485,0.237l0.018,4.388h-21.71h-21.71L183.068,343.503z M176.169,337.827
				c-1.506,0.939-1.448,2.847-1.446,2.928l-0.002,28.778h8.329V355.91h21.71h21.71v13.623h8.328l-0.002-28.778
				c0.003-0.081,0.062-1.988-1.445-2.928c-2.903-1.815-13.544-7.736-28.591-7.752C189.713,330.091,179.073,336.012,176.169,337.827
				 M101.756,337.827c-1.526,0.954-1.446,2.903-1.446,2.923l0.007,15.158h51.566l-0.019,4.846l-0.486,0.237
				c-3.712,1.812-11.405,4.855-21.2,4.863h-0.301c-9.405-0.061-16.84-2.91-20.613-4.714l-9.106,2.938
				c0.092,0.655,0.399,1.721,1.409,2.352c2.906,1.816,13.557,7.743,28.578,7.752c15.062-0.009,25.713-5.936,28.619-7.752
				c1.525-0.954,1.446-2.904,1.445-2.924l-0.006-15.616h-51.567l0.019-4.388l0.486-0.237c3.713-1.812,11.406-4.855,21.201-4.862h0.3
				c9.406,0.061,16.841,2.909,20.613,4.713l9.106-2.938c-0.093-0.657-0.398-1.721-1.408-2.352
				c-2.907-1.816-13.556-7.743-28.579-7.753C115.313,330.084,104.663,336.011,101.756,337.827"/>
		</defs>
		<clipPath id="SVGID_39_">
			<use xlink:href="#SVGID_38_"  overflow="visible"/>
		</clipPath>
		
			<linearGradient id="SVGID_40_" gradientUnits="userSpaceOnUse" x1="0" y1="409.5098" x2="1" y2="409.5098" gradientTransform="matrix(121.1031 -116.9479 -116.9479 -121.1031 47961.0078 50003.5234)">
			<stop  offset="0" style="stop-color:#515C64"/>
			<stop  offset="0.0194" style="stop-color:#5B676E"/>
			<stop  offset="0.0989" style="stop-color:#808D94"/>
			<stop  offset="0.1383" style="stop-color:#8F9BA3"/>
			<stop  offset="0.5129" style="stop-color:#D6DCE0"/>
			<stop  offset="0.7065" style="stop-color:#FFFFFF"/>
			<stop  offset="0.7416" style="stop-color:#F2F4F6"/>
			<stop  offset="0.7968" style="stop-color:#DAE0E3"/>
			<stop  offset="0.8653" style="stop-color:#B7C0C6"/>
			<stop  offset="0.9345" style="stop-color:#8F9BA3"/>
			<stop  offset="1" style="stop-color:#8F9BA3"/>
		</linearGradient>
		<polygon clip-path="url(#SVGID_39_)" fill="url(#SVGID_40_)" points="3.622,351.359 133.91,225.54 256.898,352.898 
			126.61,478.717 		"/>
	</g>
	<g clip-path="url(#SVGID_2_)">
		<defs>
			<rect id="SVGID_41_" width="260.132" height="409.51"/>
		</defs>
		<clipPath id="SVGID_42_">
			<use xlink:href="#SVGID_41_"  overflow="visible"/>
		</clipPath>
		<g opacity="0.44" clip-path="url(#SVGID_42_)">
			<g>
				<defs>
					<rect id="SVGID_43_" x="57.457" y="141.239" width="0.066" height="0.076"/>
				</defs>
				<clipPath id="SVGID_44_">
					<use xlink:href="#SVGID_43_"  overflow="visible"/>
				</clipPath>
				<g clip-path="url(#SVGID_44_)">
					<defs>
						<path id="SVGID_45_" d="M57.523,141.239c0,0-0.034,0.039-0.066,0.076C57.476,141.293,57.484,141.284,57.523,141.239"/>
					</defs>
					<clipPath id="SVGID_46_">
						<use xlink:href="#SVGID_45_"  overflow="visible"/>
					</clipPath>
					
						<linearGradient id="SVGID_47_" gradientUnits="userSpaceOnUse" x1="0" y1="409.5107" x2="1" y2="409.5107" gradientTransform="matrix(253.2686 -87.2074 -87.2074 -253.2686 35716.3984 103875.7344)">
						<stop  offset="0" style="stop-color:#171D37"/>
						<stop  offset="0.2466" style="stop-color:#171D37"/>
						<stop  offset="0.3259" style="stop-color:#191F3D"/>
						<stop  offset="0.3744" style="stop-color:#1B2142"/>
						<stop  offset="0.9616" style="stop-color:#003B71"/>
						<stop  offset="1" style="stop-color:#003B71"/>
					</linearGradient>
					<polygon clip-path="url(#SVGID_46_)" fill="url(#SVGID_47_)" points="57.434,141.247 57.516,141.218 57.546,141.307 
						57.464,141.335 					"/>
				</g>
			</g>
		</g>
	</g>
	<g clip-path="url(#SVGID_2_)">
		<defs>
			<path id="SVGID_48_" d="M57.457,141.315c0.021-0.025,0.044-0.05,0.056-0.065C57.482,141.286,57.474,141.295,57.457,141.315
				 M57.513,141.25c0.003-0.003,0.007-0.007,0.01-0.011C57.523,141.24,57.519,141.244,57.513,141.25 M57.523,141.239L57.523,141.239
				"/>
		</defs>
		<clipPath id="SVGID_49_">
			<use xlink:href="#SVGID_48_"  overflow="visible"/>
		</clipPath>
		
			<linearGradient id="SVGID_50_" gradientUnits="userSpaceOnUse" x1="0" y1="409.5107" x2="1" y2="409.5107" gradientTransform="matrix(271.909 -93.6258 -93.6258 -271.909 38322.0352 111516.8828)">
			<stop  offset="0" style="stop-color:#515C64"/>
			<stop  offset="0.0327" style="stop-color:#5B676E"/>
			<stop  offset="0.1669" style="stop-color:#808D94"/>
			<stop  offset="0.2332" style="stop-color:#8F9BA3"/>
			<stop  offset="0.4732" style="stop-color:#D6DCE0"/>
			<stop  offset="0.5973" style="stop-color:#FFFFFF"/>
			<stop  offset="0.7391" style="stop-color:#FFFFFF"/>
			<stop  offset="0.7714" style="stop-color:#F2F4F6"/>
			<stop  offset="0.8224" style="stop-color:#DAE0E3"/>
			<stop  offset="0.8857" style="stop-color:#B7C0C6"/>
			<stop  offset="0.9496" style="stop-color:#8F9BA3"/>
			<stop  offset="1" style="stop-color:#8F9BA3"/>
		</linearGradient>
		<polygon clip-path="url(#SVGID_49_)" fill="url(#SVGID_50_)" points="57.434,141.247 57.516,141.218 57.546,141.307 
			57.464,141.335 		"/>
	</g>
	<g clip-path="url(#SVGID_2_)">
		<defs>
			<rect id="SVGID_51_" width="260.132" height="409.51"/>
		</defs>
		<clipPath id="SVGID_52_">
			<use xlink:href="#SVGID_51_"  overflow="visible"/>
		</clipPath>
		<g opacity="0.44" clip-path="url(#SVGID_52_)">
			<g>
				<defs>
					<rect id="SVGID_53_" x="57.414" y="141.315" width="0.043" height="0.05"/>
				</defs>
				<clipPath id="SVGID_54_">
					<use xlink:href="#SVGID_53_"  overflow="visible"/>
				</clipPath>
				<g clip-path="url(#SVGID_54_)">
					<defs>
						<path id="SVGID_55_" d="M57.457,141.315C57.39,141.393,57.411,141.368,57.457,141.315"/>
					</defs>
					<clipPath id="SVGID_56_">
						<use xlink:href="#SVGID_55_"  overflow="visible"/>
					</clipPath>
					
						<linearGradient id="SVGID_57_" gradientUnits="userSpaceOnUse" x1="0.2104" y1="409.5107" x2="0.2104" y2="409.5107" gradientTransform="matrix(253.2686 -87.2074 -87.2074 -253.2686 35716.3984 103875.7344)">
						<stop  offset="0" style="stop-color:#171D37"/>
						<stop  offset="0.2466" style="stop-color:#171D37"/>
						<stop  offset="0.3259" style="stop-color:#191F3D"/>
						<stop  offset="0.3744" style="stop-color:#1B2142"/>
						<stop  offset="0.9616" style="stop-color:#003B71"/>
						<stop  offset="1" style="stop-color:#003B71"/>
					</linearGradient>
					<polygon clip-path="url(#SVGID_56_)" fill="url(#SVGID_57_)" points="57.366,141.323 57.45,141.294 57.481,141.385 
						57.397,141.414 					"/>
				</g>
			</g>
		</g>
	</g>
	<g clip-path="url(#SVGID_2_)">
		<defs>
			<path id="SVGID_58_" d="M57.457,141.315C57.389,141.393,57.411,141.369,57.457,141.315"/>
		</defs>
		<clipPath id="SVGID_59_">
			<use xlink:href="#SVGID_58_"  overflow="visible"/>
		</clipPath>
		
			<linearGradient id="SVGID_60_" gradientUnits="userSpaceOnUse" x1="0.2803" y1="409.5098" x2="0.2803" y2="409.5098" gradientTransform="matrix(271.909 -93.6258 -93.6258 -271.909 38322.0352 111516.8828)">
			<stop  offset="0" style="stop-color:#515C64"/>
			<stop  offset="0.0327" style="stop-color:#5B676E"/>
			<stop  offset="0.1669" style="stop-color:#808D94"/>
			<stop  offset="0.2332" style="stop-color:#8F9BA3"/>
			<stop  offset="0.4732" style="stop-color:#D6DCE0"/>
			<stop  offset="0.5973" style="stop-color:#FFFFFF"/>
			<stop  offset="0.7391" style="stop-color:#FFFFFF"/>
			<stop  offset="0.7714" style="stop-color:#F2F4F6"/>
			<stop  offset="0.8224" style="stop-color:#DAE0E3"/>
			<stop  offset="0.8857" style="stop-color:#B7C0C6"/>
			<stop  offset="0.9496" style="stop-color:#8F9BA3"/>
			<stop  offset="1" style="stop-color:#8F9BA3"/>
		</linearGradient>
		<polygon clip-path="url(#SVGID_59_)" fill="url(#SVGID_60_)" points="57.365,141.323 57.45,141.294 57.481,141.385 
			57.396,141.414 		"/>
	</g>
</g>
</svg>
